<?xml version="1.0" standalone="no"?>
<!DOCTYPE svg PUBLIC "-//W3C//DTD SVG 1.1//EN"
  "http://www.w3.org/Graphics/SVG/1.1/DTD/svg11.dtd">
<svg version="1.1" xmlns="http://www.w3.org/2000/svg" width="1280" height="720" viewBox="-1040.8888888888887 -32 1889.7777777777776 1063" id="ccdiagram"><defs><style type="text/css">@import url(&#x27;https://fonts.googleapis.com/css?family=Open+Sans:400,700|Inconsolata:400&#x27;);</style></defs><g>0<g pointer-events=""></g>0<g pointer-events=""></g><g></g><g pointer-events=""></g><g pointer-events=""></g><g pointer-events="none"></g><g pointer-events=""><g><g cursor="cell"><line x1="-288" y1="407" x2="-122" y2="311" stroke="red" stroke-width="8" opacity="0"></line><line x1="-288" y1="407" x2="-122" y2="311" stroke="#000000" stroke-width="2" stroke-linecap="round"></line><polygon points="-112 305, -138 311, -124 312, -121 320, -112 305" stroke-linejoin="round" fill="#000000" stroke="#000000" stroke-width="1"></polygon></g></g><g><g cursor="cell"><line x1="-32" y1="259" x2="48" y2="213" stroke="red" stroke-width="8" opacity="0"></line><line x1="-32" y1="259" x2="48" y2="213" stroke="#000000" stroke-width="2" stroke-linecap="round"></line></g></g><g><g cursor="cell"><line x1="48" y1="213" x2="118" y2="253" stroke="red" stroke-width="8" opacity="0"></line><line x1="48" y1="213" x2="118" y2="253" stroke="#000000" stroke-width="2" stroke-linecap="round"></line><polygon points="128 259, 119 244, 116 252, 102 254, 128 259" stroke-linejoin="round" fill="#000000" stroke="#000000" stroke-width="1"></polygon></g></g><g><g cursor="cell"><line x1="-560" y1="564" x2="-362" y2="450" stroke="red" stroke-width="8" opacity="0"></line><line x1="-560" y1="564" x2="-362" y2="450" stroke="#000000" stroke-width="2" stroke-linecap="round"></line><polygon points="-352 444, -378 449, -364 451, -361 459, -352 444" stroke-linejoin="round" fill="#000000" stroke="#000000" stroke-width="1"></polygon></g></g><g><g cursor="cell"><line x1="-259" y1="202" x2="-138" y2="272" stroke="red" stroke-width="8" opacity="0"></line><line x1="-259" y1="202" x2="-138" y2="272" stroke="#000000" stroke-width="2" stroke-dasharray="8,6" stroke-linecap="butt"></line><polygon points="-128 278, -137 263, -140 270, -154 272, -128 278" stroke-linejoin="round" fill="#000000" stroke="#000000" stroke-width="1"></polygon></g></g><g><g cursor="cell"><line x1="-128" y1="259" x2="-96" y2="167" stroke="red" stroke-width="8" opacity="0"></line><line x1="-128" y1="259" x2="-96" y2="167" stroke="#000000" stroke-width="2" stroke-dasharray="8,6" stroke-linecap="butt"></line></g></g><g><g cursor="cell"><line x1="-96" y1="167" x2="-182" y2="117" stroke="red" stroke-width="8" opacity="0"></line><line x1="-96" y1="167" x2="-182" y2="117" stroke="#000000" stroke-width="2" stroke-dasharray="8,6" stroke-linecap="butt"></line><polygon points="-192 111, -183 126, -180 118, -166 116, -192 111" stroke-linejoin="round" fill="#000000" stroke="#000000" stroke-width="1"></polygon></g></g></g><g pointer-events=""><g opacity="1"><g id="98dece1b-84e8-43a0-8d72-cc8bd1e82b68" transform="translate(0 0)"><g><polygon points="192 222, 256 259, 192 296, 128 259" fill="#4286c5"></polygon><polygon points="128 296, 192 333, 192 296, 128 259" fill="#326ca2" stroke="#5aa2d8"></polygon><polygon points="192 333, 256 296, 256 259, 192 296" fill="#26527b" stroke="#5aa2d8"></polygon><polygon points="192 222, 128 259, 128 296, 192 333, 256 296, 256 259" fill="none" stroke="#000000" stroke-width="2"></polygon></g></g></g><g opacity="1"><g id="71cc3795-de14-49b3-909e-30d348807926" transform="translate(0 0)"><svg x="-128" y="201" height="113.438" width="96" viewBox="0 0 25.400052 30.013873"><g transform="translate(412.599 -86.957)"><path d="M-412.333 102.348v4.786l8.29 4.785h8.289l8.29-4.785v-4.786l-8.29-4.786h-8.29z" fill="#3c3c3c" fill-rule="evenodd"></path><path d="M-395.754 111.92l8.29-4.786v4.785l-8.29 4.786z" fill="#090909" fill-rule="evenodd"></path><path d="M-404.044 111.92h8.29v4.785h-8.29z" fill="#232323" fill-rule="evenodd"></path><path d="M-412.333 107.134v4.785l8.29 4.786v-4.786z" fill="#232323" fill-rule="evenodd"></path><path d="M-412.333 107.134l8.29 4.785h8.289l8.29-4.785M-404.044 111.92v4.785M-395.754 111.92v4.785" fill="none" stroke="#000" stroke-width=".26588"></path><path d="M-412.333 102.348v9.571l8.29 4.786h8.289l8.29-4.786v-9.571l-8.29-4.786h-8.29z" fill="none" stroke="#000000" stroke-width=".53176"></path><path d="M-412.333 97.178v4.786l8.29 4.786h8.289l8.29-4.786v-4.786l-8.29-4.786h-8.29z" fill="#3c3c3c" fill-rule="evenodd"></path><path d="M-395.754 106.75l8.29-4.786v4.786l-8.29 4.786z" fill="#090909" fill-rule="evenodd"></path><path d="M-404.044 106.75h8.29v4.786h-8.29z" fill="#232323" fill-rule="evenodd"></path><path d="M-412.333 101.964v4.786l8.29 4.786v-4.786z" fill="#232323" fill-rule="evenodd"></path><path d="M-412.333 101.964l8.29 4.786h8.289l8.29-4.786M-404.044 106.75v4.786M-395.754 106.75v4.786" fill="none" stroke="#000" stroke-width=".266"></path><path d="M-412.333 97.178v9.572l8.29 4.786h8.289l8.29-4.786v-9.572l-8.29-4.786h-8.29z" fill="none" stroke="#000000" stroke-width=".532"></path><path d="M-412.333 92.01v4.785l8.29 4.786h8.289l8.29-4.786v-4.786l-8.29-4.786h-8.29z" fill="#3c3c3c" fill-rule="evenodd"></path><path d="M-395.754 101.58l8.29-4.785v4.786l-8.29 4.786z" fill="#090909" fill-rule="evenodd"></path><path d="M-404.044 101.58h8.29v4.787h-8.29z" fill="#232323" fill-rule="evenodd"></path><path d="M-412.333 96.795v4.786l8.29 4.786v-4.786z" fill="#232323" fill-rule="evenodd"></path><path d="M-412.333 96.795l8.29 4.786h8.289l8.29-4.786M-404.044 101.58v4.787M-395.754 101.58v4.787" fill="none" stroke="#000" stroke-width=".266"></path><path d="M-412.333 92.01v9.57l8.29 4.787h8.289l8.29-4.786v-9.572l-8.29-4.786h-8.29z" fill="none" stroke="#000000" stroke-width=".532"></path><circle cx="-136.478" cy="325.284" fill="#f4b934" r="5.801" transform="scale(1.22475 .7071) rotate(45)"></circle><g style="line-height:0%" font-family="sans-serif" font-size="3.191" stroke-width=".266"><path style="line-height:1.25;-inkscape-font-specification:&#x27;Droid Serif&#x27;" d="M-399.242 93.57l.48-.601q.222-.275.177-.448-.04-.17-.467-.416l-.507-.293 1.065-.614.937.541q.825.476.92.934.1.46-.417 1.114l-3.452 4.39-1.622-.937 1.654-2.121-3.729.923-1.622-.936z" fill="#fff" font-family="Droid Serif" font-size="9.971"></path></g></g></svg></g></g><g opacity="1"><g id="1d0702b4-d9aa-4def-9029-cca73bf8d7cf" transform="translate(0 0)"><svg x="-323" y="92" height="115.695" width="100.625" viewBox="0 0 26.623829 30.611019"><path d="M13.312.306v15l12.99-7.5z" fill="#4286c5" fill-rule="evenodd"></path><path d="M.322 7.806l12.99 7.5v-15z" fill="#26527b" fill-rule="evenodd"></path><path d="M13.312.306v15" fill="none" stroke="#318bce" stroke-width=".265"></path><path d="M13.312 15.306l12.99-7.5-6.495 18.75-6.495 3.75z" fill="#26527b" fill-rule="evenodd"></path><path d="M.322 7.806l12.99 7.5v15l-6.495-3.75z" fill="#326ca2" fill-rule="evenodd"></path><path d="M.322 7.806l12.99 7.5 12.99-7.5-12.99 7.5v15" fill="none" stroke="#5aa2d8" stroke-width=".265"></path><path d="M13.312.306l-12.99 7.5 6.495 18.75 6.495 3.75 6.495-3.75 6.495-18.75z" fill="none" stroke="#000000" stroke-width=".529"></path></svg></g></g><g opacity="1"><g id="ab6891d8-743b-424d-ae23-05722105d8bc" transform="translate(0 0)"><svg x="-398" y="363" height="108.05" width="123" viewBox="0 0 32.543749 28.588253"><path d="M10.115 6.02v14.218l7.873-4.318V1.474z" fill="#090909" fill-rule="evenodd" stroke="#000" stroke-width=".268"></path><path d="M.265 2.228l9.85 3.791v14.219l-9.85-8.531z" fill="#232323" fill-rule="evenodd" stroke="#000" stroke-width=".265"></path><path d="M10.115 6.02l7.873-4.546L3.548.332.265 2.228z" fill="#3c3c3c" fill-rule="evenodd" stroke="#000" stroke-width=".265"></path><path d="M.265 11.707l9.85 8.53 7.873-4.317V1.474L3.392.271.265 2.076z" fill="none" stroke="#000000" stroke-width=".529"></path><path d="M22.429 3.65L14.22 8.39l14.828 10.397 3.231-1.866z" fill="#3c3c3c" fill-rule="evenodd" stroke="#000" stroke-width=".268"></path><path d="M14.22 8.39V22.61l14.777 5.687.051-9.509z" fill="#232323" fill-rule="evenodd" stroke="#000" stroke-width=".265"></path><path d="M29.048 18.787l3.231-1.866V26.4l-3.282 1.897z" fill="#090909" fill-rule="evenodd" stroke="#000" stroke-width=".265"></path><path d="M22.429 3.65L14.22 8.39V22.61l14.777 5.687 3.282-1.897v-9.478z" fill="none" stroke="#000000" stroke-width=".529"></path><path d="M21.09 20.43q.163.375.048.64t-.44.265q-.326 0-.671-.265-.346-.265-.509-.64-.162-.374-.047-.639t.44-.265q.326 0 .671.265.346.265.509.64zm1.573-1.808q.08.184.022.318-.059.134-.218.134-.16 0-.335-.134-.176-.135-.255-.318-.082-.187-.024-.32.058-.132.22-.132.163 0 .336.132.173.133.254.32zm1.573 3.617q.08.184.021.318-.058.134-.218.134t-.335-.134q-.175-.135-.255-.318-.081-.187-.023-.32.057-.132.22-.132t.335.132q.173.133.255.32zm-1.826-1.487l-.284-.654q-.016-.035-.052-.068-.036-.034-.065-.038l-.513-.084q-.088-.124-.215-.269.03-.17.1-.406.006-.035-.01-.07-.018-.043-.05-.068-.117-.106-.39-.316-.275-.21-.333-.21-.034 0-.054.025l-.215.317q-.143-.067-.284-.11-.2-.38-.309-.547-.058-.085-.129-.085h-.571q-.034 0-.05.027-.016.026-.004.062l.164.54q-.089.036-.182.11l-.5-.315q-.032-.024-.071-.024-.034 0-.053.028-.238.47-.196.565.014.032.05.067.053.05.208.187.155.138.238.216-.003.155.018.29l-.43.084q-.029.004-.038.034-.008.03.008.069l.285.653q.015.036.051.069.036.033.065.037l.513.085q.088.124.215.268-.03.17-.1.407-.005.038.01.07.018.043.052.07.113.107.388.315.275.208.333.209.034 0 .054-.025l.215-.318q.132.064.286.113.2.382.307.544.058.085.129.085h.571q.034 0 .05-.027.016-.026.004-.062l-.164-.54q.089-.035.183-.11l.499.315q.035.024.072.024.033 0 .052-.028.238-.47.196-.565-.014-.032-.05-.067-.062-.057-.212-.19-.15-.135-.23-.213-.004-.169-.022-.29l.431-.08q.028-.007.036-.038.008-.03-.008-.068zm1.147-1.883l-.215-.494q-.025-.057-.505-.11-.079-.095-.172-.183-.017-.4-.056-.488-.006-.014-.023-.024-.483-.251-.49-.251-.024 0-.069.166-.044.166-.055.24-.064-.007-.095-.007t-.09.007q-.075-.074-.264-.24-.188-.166-.213-.166-.006 0-.272.25-.008.011-.002.025.039.088.369.488-.017.088-.012.183-.435.053-.41.11l.215.494q.024.057.505.11.084.102.172.184.017.399.055.487.006.014.023.025l.138.07.234.12q.11.057.117.057.024 0 .07-.164.045-.164.056-.239.064.007.095.007.03 0 .089-.007.266.251.455.396l.021.007q.012 0 .273-.247.008-.01.002-.025-.038-.088-.368-.487.017-.082.012-.184.435-.053.41-.11zm1.572 3.617l-.215-.494q-.024-.057-.505-.11-.078-.095-.172-.184-.017-.399-.055-.487-.006-.014-.023-.025-.484-.25-.49-.25-.025 0-.069.165-.044.166-.055.24-.065-.006-.096-.006-.03 0-.089.007-.075-.075-.264-.24-.189-.166-.213-.166-.006 0-.272.25-.008.01-.002.025.038.088.369.487-.017.088-.013.184-.434.053-.41.11l.215.494q.025.057.505.11.085.102.173.183.016.4.055.488.006.014.023.024l.138.07.233.121q.111.057.117.057.025 0 .07-.165.045-.164.056-.238.065.007.095.007.031 0 .09-.007.265.25.454.396l.022.007q.012 0 .273-.248.008-.01.002-.024-.038-.088-.369-.488.017-.08.013-.183.434-.053.41-.11z" fill="#f4b934"></path></svg></g></g><g opacity="1"><g id="6c6f6ef3-4ceb-4aa1-b55e-038974c8e354" transform="translate(0 0)"><svg x="-664" y="506" height="95.068" width="63" viewBox="0 0 16.669 25.153"><path d="M16.668 22.903q0 1.64-.864 2.091-.865.451-2.297-.376L3.161 18.645q-1.433-.827-2.297-2.276Q.001 14.921 0 13.28q0-.723.042-1.39.042-.666.166-1.394.124-.727.313-1.302.19-.575.51-1.039.319-.464.733-.683.414-.22 1.012-.147.598.073 1.32.49.107.06.497.58.391.52.882 1.165.491.646 1.279 1.394.788.75 1.58 1.207.793.458 1.58.618.788.161 1.28.083.49-.079.881-.147.39-.069.497-.007.722.416 1.32 1.035.598.619 1.013 1.315.414.697.734 1.531t.509 1.627q.19.793.313 1.664.124.872.166 1.586.042.713.042 1.438zM12.88 8.51q0 2.173-1.332 2.942-1.332.769-3.214-.318-1.882-1.086-3.214-3.393Q3.79 5.434 3.79 3.26q0-2.173 1.331-2.942 1.332-.77 3.214.317t3.214 3.394q1.332 2.306 1.332 4.48z" fill="#000000"></path></svg></g></g></g><g pointer-events=""></g><g pointer-events=""><g opacity="1"><g id="48555b6f-7e55-4838-8fe6-25b84159d475" transform="translate(0 0)"><svg x="-560" y="564" overflow="visible"><g transform="scale(1.3975424859373686) matrix(0.707 0.409 -0.707 0.409 0 0)"><circle cx="0" cy="0" fill="#000000" r="24"></circle><svg width="34" height="32" x="-17" y="-16" style="fill:#ffffff"><svg xmlns="http://www.w3.org/2000/svg" width="34" height="32" viewBox="0 0 34 32"><path d="M7.429 22.857A2.866 2.866 0 0 1 4.572 20V7.429a2.866 2.866 0 0 1 2.857-2.857h19.429a2.866 2.866 0 0 1 2.857 2.857V20a2.866 2.866 0 0 1-2.857 2.857H7.429zM6.857 7.429V20c0 .304.268.571.571.571h19.429a.587.587 0 0 0 .571-.571V7.429a.587.587 0 0 0-.571-.571H7.428a.587.587 0 0 0-.571.571zM31.429 24h2.857v1.714c0 .946-1.286 1.714-2.857 1.714H2.858c-1.571 0-2.857-.768-2.857-1.714V24H31.43zm-12.858 1.714c.161 0 .286-.125.286-.286s-.125-.286-.286-.286h-2.857c-.161 0-.286.125-.286.286s.125.286.286.286h2.857z"/></svg></svg></g></svg></g></g></g><g pointer-events=""><g opacity="1"><g id="5a4038ad-9ffb-43fe-9ec9-8b53d0bea1ca" transform="translate(0 0)"><svg x="-256" y="463" overflow="visible"><text stroke="#ffffff" stroke-width="4" font-family="Open Sans" y="25.099999999999998" font-size="15pt" fill="#ff5722" font-weight="bold" transform="matrix(0.707 0.409 -0.707 0.409 0 0)" xml:space="preserve"><tspan x="8" dy="0">Amazon</tspan></text><text font-family="Open Sans" y="25.099999999999998" font-size="15pt" fill="#ff5722" font-weight="bold" transform="matrix(0.707 0.409 -0.707 0.409 0 0)" xml:space="preserve"><tspan x="8" dy="0">Amazon</tspan></text></svg></g></g><g opacity="1"><g id="d791999d-da0b-4136-97f4-38274797c165" transform="translate(0 0)"><svg x="-272" y="472" overflow="visible"><text stroke="#ffffff" stroke-width="4" font-family="Open Sans" y="36.5" font-size="25pt" fill="#ff5722" font-weight="bold" transform="matrix(0.707 0.409 -0.707 0.409 0 0)" xml:space="preserve"><tspan x="8" dy="0">API Gateway</tspan></text><text font-family="Open Sans" y="36.5" font-size="25pt" fill="#ff5722" font-weight="bold" transform="matrix(0.707 0.409 -0.707 0.409 0 0)" xml:space="preserve"><tspan x="8" dy="0">API Gateway</tspan></text></svg></g></g><g opacity="1"><g id="d67cac59-1f17-4202-8f43-03f639a29970" transform="translate(0 0)"><svg x="-16" y="305" overflow="visible"><text stroke="#ffffff" stroke-width="4" font-family="Open Sans" y="25.099999999999998" font-size="15pt" fill="#ff5722" font-weight="bold" transform="matrix(0.707 0.409 -0.707 0.409 0 0)" xml:space="preserve"><tspan x="8" dy="0">AWS</tspan></text><text font-family="Open Sans" y="25.099999999999998" font-size="15pt" fill="#ff5722" font-weight="bold" transform="matrix(0.707 0.409 -0.707 0.409 0 0)" xml:space="preserve"><tspan x="8" dy="0">AWS</tspan></text></svg></g></g><g opacity="1"><g id="ae5a6e5f-9e7c-49fa-a462-ddaf7cd91631" transform="translate(0 0)"><svg x="-32" y="315" overflow="visible"><text stroke="#ffffff" stroke-width="4" font-family="Open Sans" y="36.5" font-size="25pt" fill="#ff5722" font-weight="bold" transform="matrix(0.707 0.409 -0.707 0.409 0 0)" xml:space="preserve"><tspan x="8" dy="0">Lambda</tspan></text><text font-family="Open Sans" y="36.5" font-size="25pt" fill="#ff5722" font-weight="bold" transform="matrix(0.707 0.409 -0.707 0.409 0 0)" xml:space="preserve"><tspan x="8" dy="0">Lambda</tspan></text></svg></g></g><g opacity="1"><g id="eb18daaa-d39a-4d1c-917a-cdc306fa38d6" transform="translate(0 0)"><svg x="-64" y="333" overflow="visible"><text stroke="#ffffff" stroke-width="4" font-family="Open Sans" y="36.5" font-size="25pt" fill="#ff5722" font-weight="bold" transform="matrix(0.707 0.409 -0.707 0.409 0 0)" xml:space="preserve"><tspan x="8" dy="0">Function</tspan></text><text font-family="Open Sans" y="36.5" font-size="25pt" fill="#ff5722" font-weight="bold" transform="matrix(0.707 0.409 -0.707 0.409 0 0)" xml:space="preserve"><tspan x="8" dy="0">Function</tspan></text></svg></g></g><g opacity="1"><g id="7595de9c-f430-486a-ab99-af7dcc7fa22d" transform="translate(0 0)"><svg x="-528" y="546" overflow="visible"><text stroke="#ffffff" stroke-width="4" font-family="Open Sans" y="25.099999999999998" font-size="15pt" fill="#000000" font-weight="bold" transform="matrix(0.707 -0.409 0.707 0.409 0 0)" xml:space="preserve"><tspan x="8" dy="0">Make HTTP request</tspan></text><text font-family="Open Sans" y="25.099999999999998" font-size="15pt" fill="#000000" font-weight="bold" transform="matrix(0.707 -0.409 0.707 0.409 0 0)" xml:space="preserve"><tspan x="8" dy="0">Make HTTP request</tspan></text></svg></g></g><g opacity="1"><g id="10c849af-a7fd-473b-9821-64bfc8a4f2f7" transform="translate(0 0)"><svg x="-288" y="407" overflow="visible"><text stroke="#ffffff" stroke-width="4" font-family="Open Sans" y="25.099999999999998" font-size="15pt" fill="#000000" font-weight="bold" transform="matrix(0.707 -0.409 0.707 0.409 0 0)" xml:space="preserve"><tspan x="8" dy="0">Route request</tspan><tspan x="8" dy="1.1em">to Lambda function</tspan></text><text font-family="Open Sans" y="25.099999999999998" font-size="15pt" fill="#000000" font-weight="bold" transform="matrix(0.707 -0.409 0.707 0.409 0 0)" xml:space="preserve"><tspan x="8" dy="0">Route request</tspan><tspan x="8" dy="1.1em">to Lambda function</tspan></text></svg></g></g><g opacity="1"><g id="bb06fa29-0b13-4912-a9be-eabcbea991a9" transform="translate(0 0)"><svg x="64" y="185" overflow="visible"><text stroke="#ffffff" stroke-width="4" font-family="Open Sans" y="25.099999999999998" font-size="15pt" fill="#000000" font-weight="bold" transform="matrix(0.707 0.409 -0.707 0.409 0 0)" xml:space="preserve"><tspan x="8" dy="0">Queries</tspan></text><text font-family="Open Sans" y="25.099999999999998" font-size="15pt" fill="#000000" font-weight="bold" transform="matrix(0.707 0.409 -0.707 0.409 0 0)" xml:space="preserve"><tspan x="8" dy="0">Queries</tspan></text></svg></g></g><g opacity="1"><g id="770e00e6-b798-4184-9f47-d627861acbfe"><svg x="128" y="296" overflow="visible"><text stroke="#ffffff" stroke-width="4" font-family="Open Sans" y="36.5" font-size="25pt" fill="#ff5722" font-weight="bold" transform="matrix(0.707 0.409 -0.707 0.409 0 0)" xml:space="preserve"><tspan x="8" dy="0">MongoDB</tspan></text><text font-family="Open Sans" y="36.5" font-size="25pt" fill="#ff5722" font-weight="bold" transform="matrix(0.707 0.409 -0.707 0.409 0 0)" xml:space="preserve"><tspan x="8" dy="0">MongoDB</tspan></text></svg></g></g><g opacity="1"><g id="d8a73520-10c0-4580-b1e7-851fb479edf9" transform="translate(0 0)"><svg x="-96" y="352" overflow="visible"><text stroke="#ffffff" stroke-width="4" font-family="Open Sans" y="25.099999999999998" font-size="15pt" fill="#ff5722" font-weight="bold" transform="matrix(0.707 0.409 -0.707 0.409 0 0)" xml:space="preserve"><tspan x="8" dy="0">Wraps our Sails.js app</tspan></text><text font-family="Open Sans" y="25.099999999999998" font-size="15pt" fill="#ff5722" font-weight="bold" transform="matrix(0.707 0.409 -0.707 0.409 0 0)" xml:space="preserve"><tspan x="8" dy="0">Wraps our Sails.js app</tspan></text></svg></g></g><g opacity="1"><g id="385db6dd-e461-4890-8200-169b86e40ecf" transform="translate(0 0)"><svg x="-304" y="194" overflow="visible"><text stroke="#ffffff" stroke-width="4" font-family="Open Sans" y="25.099999999999998" font-size="15pt" fill="#ff5722" font-weight="bold" transform="matrix(0.707 0.409 -0.707 0.409 0 0)" xml:space="preserve"><tspan x="8" dy="0">Amazon</tspan></text><text font-family="Open Sans" y="25.099999999999998" font-size="15pt" fill="#ff5722" font-weight="bold" transform="matrix(0.707 0.409 -0.707 0.409 0 0)" xml:space="preserve"><tspan x="8" dy="0">Amazon</tspan></text></svg></g></g><g opacity="1"><g id="d3480b67-69e5-4df3-b099-76c329f7b916" transform="translate(0 0)"><svg x="-320" y="204" overflow="visible"><text stroke="#ffffff" stroke-width="4" font-family="Open Sans" y="36.5" font-size="25pt" fill="#ff5722" font-weight="bold" transform="matrix(0.707 0.409 -0.707 0.409 0 0)" xml:space="preserve"><tspan x="8" dy="0">S3</tspan></text><text font-family="Open Sans" y="36.5" font-size="25pt" fill="#ff5722" font-weight="bold" transform="matrix(0.707 0.409 -0.707 0.409 0 0)" xml:space="preserve"><tspan x="8" dy="0">S3</tspan></text></svg></g></g><g opacity="1"><g id="f7a62e6a-588e-4aed-8e4f-3d9c6555a8d5" transform="translate(0 0)"><svg x="-352" y="222" overflow="visible"><text stroke="#ffffff" stroke-width="4" font-family="Open Sans" y="25.099999999999998" font-size="15pt" fill="#ff5722" font-weight="bold" transform="matrix(0.707 0.409 -0.707 0.409 0 0)" xml:space="preserve"><tspan x="8" dy="0">Stores function code</tspan></text><text font-family="Open Sans" y="25.099999999999998" font-size="15pt" fill="#ff5722" font-weight="bold" transform="matrix(0.707 0.409 -0.707 0.409 0 0)" xml:space="preserve"><tspan x="8" dy="0">Stores function code</tspan></text></svg></g></g><g opacity="1"><g id="7cd4b102-8f69-4aaf-bdc0-670b2e7021b6" transform="translate(0 0)"><svg x="96" y="315" overflow="visible"><text stroke="#ffffff" stroke-width="4" font-family="Open Sans" y="25.099999999999998" font-size="15pt" fill="#ff5722" font-weight="bold" transform="matrix(0.707 0.409 -0.707 0.409 0 0)" xml:space="preserve"><tspan x="8" dy="0">Can be hosted anywhere</tspan></text><text font-family="Open Sans" y="25.099999999999998" font-size="15pt" fill="#ff5722" font-weight="bold" transform="matrix(0.707 0.409 -0.707 0.409 0 0)" xml:space="preserve"><tspan x="8" dy="0">Can be hosted anywhere</tspan></text></svg></g></g><g opacity="1"><g id="f9e6131c-2152-404e-8f69-9cfcd720e820" transform="translate(0 0)"><svg x="-160" y="93" overflow="visible"><text stroke="#ffffff" stroke-width="4" font-family="Open Sans" y="25.099999999999998" font-size="15pt" fill="#000000" font-weight="bold" transform="matrix(0.707 0.409 -0.707 0.409 0 0)" xml:space="preserve"><tspan x="8" dy="0">Logs to CloudWatch</tspan></text><text font-family="Open Sans" y="25.099999999999998" font-size="15pt" fill="#000000" font-weight="bold" transform="matrix(0.707 0.409 -0.707 0.409 0 0)" xml:space="preserve"><tspan x="8" dy="0">Logs to CloudWatch</tspan></text></svg></g></g></g></g></svg>